<?xml version="1.0" standalone="no"?>
<!DOCTYPE svg PUBLIC "-//W3C//DTD SVG 20010904//EN"
 "http://www.w3.org/TR/2001/REC-SVG-20010904/DTD/svg10.dtd">
<svg version="1.0" xmlns="http://www.w3.org/2000/svg"
 width="1080.000000pt" height="1080.000000pt" viewBox="0 0 1080.000000 1080.000000"
 preserveAspectRatio="xMidYMid meet">
<metadata>
Created by potrace 1.14, written by Peter Selinger 2001-2017
</metadata>
<g transform="translate(0.000000,1080.000000) scale(0.100000,-0.100000)"
fill="#000000" stroke="none">
<path d="M4461 9657 c-1 -10 -5 -16 -10 -12 -5 3 -13 0 -16 -5 -5 -8 -14 -5
-28 7 -11 10 -17 12 -13 5 5 -9 1 -15 -13 -19 -11 -3 -18 -10 -14 -16 4 -6 1
-7 -8 -1 -20 12 -39 14 -39 3 0 -6 -8 -6 -19 1 -14 7 -22 7 -27 -2 -5 -7 -3
-8 6 -3 8 5 11 4 6 -3 -3 -6 -18 -9 -31 -6 -15 3 -25 0 -25 -7 0 -8 -4 -8 -15
1 -12 10 -16 9 -21 -4 -3 -9 -10 -13 -15 -10 -6 3 -17 0 -26 -8 -14 -11 -16
-11 -8 2 7 13 6 13 -7 2 -9 -7 -20 -12 -24 -11 -18 4 -44 -13 -37 -25 4 -6 1
-6 -9 2 -13 10 -17 10 -22 -5 -6 -15 -8 -15 -16 -3 -6 8 -10 10 -10 5 0 -6
-10 -12 -22 -12 -13 -1 -24 -7 -26 -13 -2 -5 -8 -10 -13 -10 -6 0 -7 6 -4 13
4 6 1 5 -7 -4 -7 -9 -24 -15 -36 -14 -13 1 -26 -4 -29 -12 -4 -10 -9 -11 -19
-2 -12 10 -13 8 -7 -7 6 -17 5 -18 -12 -4 -17 14 -18 13 -12 -2 3 -10 3 -17
-1 -17 -20 3 -33 -2 -27 -11 3 -6 -1 -7 -9 -4 -9 3 -16 2 -16 -3 0 -10 -8 -12
-54 -16 -13 -1 -22 -5 -20 -8 6 -10 -22 -30 -45 -32 -11 0 -18 -4 -16 -7 1 -3
-4 -12 -13 -20 -14 -13 -15 -12 -9 3 5 14 4 15 -13 4 -11 -6 -20 -19 -21 -27
0 -10 -2 -11 -6 -2 -3 8 -11 5 -25 -10 -11 -13 -17 -16 -13 -8 4 8 -1 6 -9 -4
-9 -11 -16 -16 -16 -10 -1 5 -7 -2 -15 -16 -8 -14 -14 -19 -15 -12 0 7 -5 10
-10 7 -6 -4 -8 -11 -5 -16 6 -9 -8 -13 -34 -10 -7 2 -10 -2 -7 -7 5 -8 -14
-21 -34 -24 -3 0 -11 -9 -19 -20 -7 -11 -20 -17 -28 -14 -8 3 -11 1 -8 -4 3
-6 -4 -14 -17 -19 -13 -5 -34 -23 -47 -40 -13 -17 -27 -28 -32 -26 -4 3 -11 0
-15 -6 -4 -8 -3 -9 4 -5 8 5 10 2 6 -8 -3 -9 -9 -15 -12 -14 -20 2 -32 -3 -27
-12 6 -9 -8 -14 -27 -11 -5 0 -8 -5 -8 -13 0 -8 -5 -18 -12 -22 -7 -5 -8 -3
-3 6 5 9 4 11 -3 6 -7 -4 -12 -14 -12 -22 0 -8 -4 -13 -9 -10 -5 3 -12 -1 -15
-10 -3 -8 -11 -12 -17 -8 -7 4 -9 3 -5 -4 3 -6 0 -14 -7 -19 -8 -4 -22 -21
-32 -36 -10 -15 -20 -26 -22 -23 -9 9 -31 -19 -26 -31 5 -12 -9 -18 -30 -14
-5 1 -5 -3 -2 -10 7 -11 -34 -56 -47 -51 -5 1 -7 -1 -7 -5 3 -21 -2 -33 -13
-31 -8 2 -12 -5 -10 -16 2 -12 -1 -16 -9 -10 -9 5 -10 2 -6 -9 6 -15 -3 -22
-26 -18 -4 0 -6 -2 -6 -6 4 -27 -3 -45 -15 -40 -11 4 -13 -1 -10 -19 3 -16 1
-23 -6 -19 -5 3 -10 -1 -10 -9 0 -9 -4 -16 -10 -16 -5 0 -10 -7 -10 -16 0 -8
-4 -13 -9 -10 -5 3 -11 -1 -14 -9 -4 -10 -1 -12 11 -9 9 3 5 -2 -10 -11 -16
-8 -28 -18 -28 -21 0 -3 4 -2 10 1 6 3 7 -1 4 -10 -4 -9 -12 -14 -19 -11 -8 3
-12 -5 -11 -22 1 -20 -4 -27 -16 -26 -10 1 -18 -2 -18 -7 0 -5 6 -9 13 -9 8 0
9 -3 1 -8 -6 -4 -10 -15 -8 -25 2 -15 0 -16 -14 -5 -13 11 -14 11 -7 -1 5 -9
2 -19 -10 -28 -14 -9 -15 -13 -4 -13 10 -1 9 -5 -5 -15 -11 -8 -16 -15 -11
-15 5 0 0 -7 -11 -16 -10 -8 -14 -13 -9 -10 6 2 11 -4 11 -14 0 -15 -3 -17
-15 -7 -11 9 -13 9 -8 0 4 -6 0 -18 -8 -26 -11 -12 -12 -17 -2 -21 7 -3 3 -7
-10 -11 -13 -4 -20 -11 -17 -16 3 -5 11 -6 17 -2 7 4 6 0 -2 -10 -7 -9 -18
-14 -25 -10 -7 4 -7 1 1 -7 10 -11 9 -16 -5 -27 -10 -9 -11 -12 -2 -7 13 7 13
5 1 -9 -11 -14 -11 -17 0 -17 7 0 3 -8 -10 -17 -23 -16 -23 -17 -5 -24 17 -7
17 -8 1 -8 -10 -1 -15 -5 -12 -11 3 -5 -2 -10 -12 -10 -15 0 -15 -2 -3 -10 12
-8 12 -11 -3 -28 -12 -13 -14 -21 -6 -29 8 -8 7 -13 -2 -18 -8 -6 -10 -4 -4 5
5 8 4 11 -3 6 -6 -3 -9 -15 -7 -26 2 -11 -1 -20 -7 -20 -7 0 -6 -5 1 -14 9
-11 9 -16 0 -22 -8 -5 -10 -3 -4 7 7 12 5 12 -6 1 -12 -11 -12 -14 1 -22 11
-7 11 -10 2 -10 -7 0 -10 -4 -7 -10 3 -5 0 -10 -7 -10 -10 0 -9 -3 2 -10 12
-8 12 -10 -3 -16 -13 -5 -15 -10 -7 -19 13 -15 2 -47 -14 -39 -6 3 -2 -2 8
-10 20 -16 20 -16 0 -17 -11 0 -14 -3 -6 -6 10 -4 9 -9 -5 -20 -10 -8 -11 -11
-3 -7 13 7 13 5 1 -9 -7 -9 -10 -17 -7 -17 4 0 3 -8 -3 -17 -7 -12 -5 -21 7
-30 16 -12 16 -13 1 -7 -10 3 -20 0 -25 -7 -4 -7 -3 -10 4 -5 7 4 10 -2 9 -14
-1 -14 -6 -19 -16 -15 -13 5 -13 4 0 -12 8 -10 14 -25 13 -33 -1 -8 -2 -21 -3
-28 0 -7 -6 -10 -12 -6 -8 4 -8 1 -1 -13 6 -11 7 -25 2 -33 -6 -9 -5 -17 3
-22 7 -4 8 -8 2 -8 -5 0 -9 -21 -9 -47 1 -27 -4 -54 -10 -62 -9 -12 -8 -13 3
-7 10 7 12 3 6 -14 -5 -15 -2 -25 6 -31 11 -7 9 -9 -6 -9 -11 0 -15 -4 -10 -8
16 -11 17 -33 3 -50 -11 -13 -11 -14 0 -8 9 6 13 -1 12 -26 -2 -67 5 -143 15
-158 12 -19 16 -42 5 -35 -4 3 -6 -4 -3 -15 3 -11 10 -20 16 -20 6 0 2 -7 -9
-16 -10 -8 -13 -13 -6 -9 6 3 13 1 13 -4 1 -6 3 -20 4 -31 1 -11 3 -25 4 -31
0 -5 7 -7 14 -3 9 6 9 5 0 -7 -10 -12 -10 -18 0 -29 10 -10 9 -11 -3 -5 -13 8
-13 6 -1 -8 7 -9 11 -30 9 -47 -3 -20 0 -30 9 -30 17 0 17 -17 1 -23 -10 -4
-10 -6 0 -6 6 -1 12 -13 12 -27 0 -17 4 -23 13 -18 6 4 9 4 5 -1 -4 -4 -2 -15
5 -23 9 -13 9 -14 0 -8 -21 12 -15 -5 10 -25 20 -17 20 -18 2 -12 -20 6 -20 6
-1 -15 11 -12 15 -22 10 -22 -5 0 0 -7 10 -15 19 -14 19 -15 2 -15 -16 0 -15
-3 6 -20 19 -14 24 -26 21 -45 -3 -15 -1 -25 6 -25 6 0 11 -9 11 -20 0 -11 5
-20 11 -20 6 0 9 -9 6 -20 -3 -10 0 -21 7 -24 7 -3 6 -5 -3 -5 -8 -1 -5 -9 10
-22 13 -11 17 -17 9 -13 -12 7 -13 5 -3 -8 7 -8 9 -19 5 -23 -4 -5 -1 -5 6 -1
11 6 17 -5 13 -26 0 -5 4 -8 10 -8 6 0 8 -7 5 -16 -3 -8 -2 -13 3 -10 5 3 15
-2 22 -11 10 -11 10 -14 2 -9 -9 5 -11 2 -7 -8 3 -9 14 -16 23 -16 12 0 13 -2
3 -9 -11 -7 -11 -9 2 -14 9 -4 16 -13 16 -22 0 -13 4 -14 20 -5 13 7 20 7 20
1 0 -7 9 -7 26 -1 17 7 23 7 19 0 -7 -12 36 -7 56 6 8 4 9 3 5 -4 -8 -13 6
-17 18 -5 9 10 46 11 40 1 -7 -12 40 -5 48 7 5 6 8 5 8 -3 0 -10 5 -10 21 -1
15 8 19 8 15 0 -4 -6 -2 -11 4 -11 6 0 21 5 32 11 15 8 19 8 14 0 -9 -14 0
-14 26 0 16 9 19 8 13 -2 -6 -8 -4 -11 6 -7 8 3 22 9 32 13 10 4 17 3 17 -5 0
-6 -5 -8 -12 -4 -7 4 -8 3 -4 -5 6 -8 12 -9 20 -2 7 6 15 8 19 5 3 -3 15 0 27
6 18 10 21 9 15 -1 -6 -8 -4 -11 7 -6 9 3 21 0 27 -6 9 -9 11 -8 6 4 -4 10 0
19 9 22 11 4 14 0 11 -15 -3 -11 -1 -18 2 -14 15 14 13 46 -3 46 -8 0 -12 5
-9 10 6 9 -7 14 -27 11 -4 0 -6 13 -4 29 3 26 1 29 -12 18 -12 -10 -14 -10 -8
0 4 7 2 12 -4 12 -6 0 -8 5 -5 10 3 6 1 10 -5 10 -6 0 -8 6 -4 13 4 6 4 9 -1
5 -13 -12 -35 12 -28 29 4 11 2 14 -5 9 -8 -5 -12 0 -12 14 0 12 -4 18 -10 15
-5 -3 -11 1 -11 9 -1 9 -2 22 -3 29 0 6 -6 12 -13 12 -6 0 -15 4 -20 9 -5 5
-3 6 5 2 20 -12 14 8 -7 21 -13 8 -18 20 -16 34 3 15 0 19 -11 15 -12 -4 -12
-2 -4 14 8 16 8 18 -4 14 -11 -4 -13 0 -9 17 4 15 3 20 -5 15 -16 -10 -15 7 1
23 7 8 7 11 1 8 -7 -4 -18 1 -25 10 -12 14 -12 16 1 9 9 -5 8 -2 -2 7 -14 11
-15 16 -5 27 7 7 8 10 2 8 -5 -3 -16 0 -22 7 -10 11 -9 15 5 18 16 4 15 5 -1
6 -11 1 -17 8 -15 19 2 12 -3 16 -17 15 -11 -1 -14 0 -7 3 6 3 12 12 12 20 0
9 -4 13 -8 10 -4 -2 -9 4 -9 15 -1 12 3 17 10 13 7 -3 1 4 -12 15 -13 12 -18
21 -12 21 6 0 11 5 11 11 0 6 -6 9 -12 6 -9 -3 -13 8 -13 37 0 22 -5 40 -11
39 -5 -1 -11 8 -11 20 -2 17 0 19 7 7 6 -9 10 -10 10 -3 0 6 -7 19 -16 27 -10
10 -11 16 -3 16 9 0 9 3 0 14 -9 10 -9 16 -1 21 8 5 6 14 -7 28 -10 11 -12 17
-6 13 9 -5 11 -2 7 8 -3 9 -9 14 -13 11 -4 -2 -8 2 -8 9 0 8 6 12 14 9 7 -3
13 0 13 6 0 10 -12 15 -31 13 -3 -1 -4 10 -1 23 2 14 9 25 16 26 6 0 2 4 -9 9
-13 6 -15 9 -5 9 13 1 13 2 0 11 -10 6 -11 10 -2 10 6 0 12 5 12 11 0 5 -3 8
-7 6 -5 -3 -8 17 -8 43 0 27 4 46 9 43 5 -4 6 0 1 7 -11 17 -12 60 -3 87 6 18
4 21 -10 16 -15 -6 -15 -5 -3 10 7 9 11 28 9 41 -3 16 0 27 9 30 11 5 11 11
-2 37 -9 17 -12 28 -6 24 8 -4 10 3 6 25 -4 24 -2 30 7 24 8 -5 7 -1 -2 11
-14 17 -13 18 2 13 13 -6 15 -1 11 24 -3 23 -1 28 9 22 10 -6 11 -5 1 7 -10
12 -10 18 0 29 10 10 9 11 -3 5 -13 -8 -13 -7 -1 8 7 9 10 17 5 17 -4 0 1 7
12 16 10 8 14 13 8 10 -7 -3 -15 1 -18 10 -3 8 -2 13 3 10 5 -3 12 1 15 10 3
8 2 12 -4 9 -6 -3 -7 1 -4 9 3 9 11 13 16 10 6 -4 6 2 -1 14 -8 16 -7 21 5 26
14 5 14 9 3 23 -12 14 -12 16 0 8 11 -6 13 -3 8 14 -4 17 -2 20 7 12 8 -7 12
-5 12 9 0 10 -4 16 -9 13 -5 -3 -3 4 5 16 7 12 17 21 23 21 5 0 3 5 -5 10 -8
5 -10 10 -3 10 6 0 10 11 9 25 -2 14 1 22 7 18 5 -3 7 0 5 8 -3 8 2 20 11 27
13 11 13 12 1 7 -10 -4 -9 -2 2 8 10 8 15 17 11 20 -3 4 -1 7 6 7 7 0 10 4 7
9 -8 13 18 62 30 57 7 -3 10 3 7 14 -3 10 0 21 6 24 6 4 11 16 11 27 0 10 5
19 10 19 6 0 10 8 10 19 0 20 23 45 33 35 3 -3 4 5 3 19 -2 20 1 25 15 22 12
-3 16 1 12 11 -3 8 0 14 6 14 6 0 11 5 11 11 0 5 -6 7 -12 4 -7 -4 -5 0 4 8
10 8 14 18 10 23 -4 4 1 2 11 -5 15 -12 17 -12 12 2 -4 8 -1 18 4 22 6 3 9 11
6 16 -4 5 2 9 12 9 15 0 16 2 3 10 -13 9 -8 14 12 12 3 -1 12 6 20 15 11 14
11 16 -2 8 -13 -8 -13 -7 -1 8 7 9 19 17 27 17 7 0 16 5 20 12 5 7 2 9 -7 4
-8 -4 -5 0 5 8 11 9 17 16 13 16 -5 0 -2 6 5 14 7 8 16 12 20 10 4 -2 10 5 13
17 4 12 12 18 20 15 9 -3 12 0 8 9 -3 8 2 18 11 21 9 3 13 10 10 15 -3 5 3 12
13 16 10 4 24 15 31 25 7 10 17 16 22 13 5 -3 12 0 16 6 4 8 3 9 -4 5 -7 -4
-12 -2 -12 3 0 6 7 11 15 11 8 0 15 5 15 11 0 5 5 7 12 3 8 -5 9 -2 5 10 -4
10 -3 15 3 11 6 -3 10 -1 10 5 0 6 5 8 10 5 6 -3 13 1 16 9 3 9 10 13 15 10 5
-3 9 2 9 11 0 11 5 15 14 12 8 -3 20 2 28 11 12 16 11 16 -7 2 -18 -14 -19
-14 -7 2 7 9 24 19 38 22 14 4 22 11 18 17 -4 7 0 7 15 0 17 -10 20 -9 15 4
-4 9 0 15 9 15 8 0 18 7 21 16 4 10 14 14 26 11 11 -3 18 0 17 6 -1 6 13 18
31 27 18 9 29 20 25 25 -4 5 1 3 11 -5 17 -13 18 -13 11 -1 -6 11 -4 13 9 8
10 -4 15 -3 11 3 -3 6 2 10 12 10 10 0 24 9 31 21 11 17 16 19 29 7 15 -11 16
-11 10 4 -3 10 -3 17 1 16 4 -1 25 6 47 16 22 10 50 19 62 19 11 1 19 5 16 10
-2 4 3 7 11 7 9 0 16 6 16 13 0 9 2 9 9 -1 10 -17 21 -17 31 -2 4 6 16 12 28
13 11 0 18 5 15 11 -4 5 1 7 9 3 9 -3 24 1 35 8 10 8 23 14 28 15 6 0 3 -5 -5
-10 -9 -6 -10 -10 -3 -10 7 0 17 8 22 18 6 9 11 11 11 5 0 -7 5 -13 11 -13 5
0 7 5 4 10 -4 7 3 9 19 6 13 -2 26 0 28 6 2 6 23 11 46 12 23 0 42 4 42 8 0 4
9 5 20 3 11 -2 27 3 35 11 10 10 15 11 15 3 0 -8 4 -8 15 1 12 10 19 10 27 2
9 -9 16 -8 29 4 11 10 19 12 24 5 3 -6 11 -11 16 -11 6 0 7 6 3 13 -5 8 -2 8
9 -2 14 -11 17 -11 17 0 0 11 2 11 10 -1 5 -8 10 -10 10 -5 0 6 13 10 30 11
18 1 27 -3 23 -9 -3 -6 4 -3 17 6 18 12 27 14 37 5 10 -8 13 -7 13 3 0 9 3 10
8 4 11 -15 32 -17 32 -3 0 8 7 5 15 -6 15 -20 15 -20 16 0 0 10 3 13 6 7 2 -7
9 -13 14 -13 6 0 7 6 3 13 -6 10 -4 10 7 0 7 -7 17 -13 22 -13 4 0 5 6 1 13
-6 9 -5 9 7 0 12 -10 18 -10 29 0 10 9 11 9 6 0 -4 -7 -3 -13 1 -13 5 0 15 6
22 13 9 7 11 7 8 1 -4 -7 0 -14 8 -17 10 -4 12 -1 8 11 -6 15 -5 15 10 3 14
-11 17 -11 17 0 0 9 3 10 8 4 8 -12 22 -13 40 -2 8 5 12 2 12 -9 0 -16 2 -15
22 2 12 10 18 13 14 7 -9 -16 10 -18 19 -3 5 8 11 7 21 -1 11 -9 18 -8 31 2
11 10 14 10 9 2 -4 -7 -3 -13 3 -13 5 0 12 6 14 13 4 9 6 8 6 -2 1 -11 4 -11
18 0 11 10 14 10 9 2 -4 -7 -3 -13 1 -13 5 0 15 6 22 13 11 10 13 10 7 0 -9
-16 10 -17 19 -3 5 8 11 7 21 -1 11 -9 18 -8 31 2 11 10 14 10 9 2 -4 -7 -2
-13 3 -13 6 0 11 6 11 13 0 9 3 8 9 -2 5 -8 11 -9 15 -3 3 6 15 10 26 9 10 -1
16 -5 14 -9 -3 -4 -1 -8 5 -8 5 0 13 5 16 10 5 8 12 7 22 -1 12 -10 16 -10 24
2 7 11 9 11 9 0 0 -11 3 -11 17 0 15 12 16 12 8 -1 -8 -13 -7 -13 8 -1 15 12
17 11 17 -5 0 -17 1 -17 16 2 8 10 13 14 10 8 -3 -7 4 -11 19 -11 16 0 22 4
18 11 -4 6 0 5 9 -2 13 -10 17 -10 21 0 4 10 6 10 6 1 1 -7 6 -13 12 -13 5 0
7 5 3 11 -3 6 6 3 22 -7 28 -18 29 -18 14 0 -14 18 -14 19 7 8 16 -9 23 -9 26
1 4 9 6 8 6 -2 1 -11 4 -11 18 0 15 12 16 12 8 -1 -8 -13 -7 -13 8 -1 15 12
17 11 17 -5 0 -17 1 -17 16 2 8 10 13 14 10 8 -3 -7 4 -11 19 -11 16 0 22 4
18 11 -4 6 0 5 9 -2 13 -10 17 -10 21 0 4 10 6 10 6 1 1 -7 6 -13 12 -13 5 0
7 5 3 11 -3 6 6 3 22 -7 22 -14 26 -15 17 -3 -11 13 -10 15 5 14 9 0 23 -4 29
-8 6 -4 14 -1 16 5 4 10 6 10 6 1 1 -7 8 -10 16 -7 8 4 15 1 15 -6 0 -9 8 -6
22 6 12 10 18 13 14 7 -9 -16 10 -18 19 -3 5 8 11 7 21 -1 11 -9 18 -8 31 2
11 10 14 10 9 2 -4 -7 -3 -13 3 -13 5 0 12 6 14 13 4 9 6 8 6 -2 1 -11 4 -11
18 0 11 10 14 10 9 2 -4 -7 -3 -13 1 -13 5 0 15 6 22 13 11 10 13 10 7 0 -9
-16 10 -17 19 -3 5 8 11 7 21 -1 11 -9 18 -8 31 2 11 10 14 10 9 2 -4 -7 -3
-13 3 -13 5 0 12 6 14 13 4 9 6 8 6 -2 1 -11 4 -11 18 0 11 10 14 10 9 2 -4
-7 -3 -13 1 -13 5 0 15 6 22 13 11 10 13 10 7 0 -9 -16 10 -17 19 -3 5 8 11 7
21 -1 11 -9 18 -8 31 2 11 10 14 10 9 2 -4 -7 -3 -13 3 -13 5 0 12 6 14 13 4
9 6 8 6 -2 1 -11 4 -11 18 0 11 10 14 10 9 2 -4 -7 -3 -13 1 -13 5 0 15 6 22
13 11 10 13 10 7 0 -9 -16 10 -17 19 -3 5 8 11 7 21 -1 11 -9 18 -8 31 2 11
10 14 10 9 2 -4 -7 -2 -13 3 -13 6 0 11 6 11 13 0 9 3 8 9 -2 5 -8 11 -9 15
-3 3 6 15 10 26 9 10 -1 16 -5 14 -9 -3 -4 -1 -8 5 -8 5 0 13 5 16 10 5 8 12
7 22 -1 12 -10 16 -10 24 2 7 11 9 11 9 0 0 -11 3 -11 17 0 15 12 16 12 8 -1
-8 -13 -7 -13 8 -1 15 12 17 11 17 -5 0 -17 1 -17 16 2 8 10 13 14 10 8 -3 -7
4 -11 19 -11 16 0 22 4 18 11 -4 6 0 5 9 -2 13 -10 17 -10 22 3 4 10 11 13 18
8 18 -11 39 -13 33 -3 -3 4 2 10 10 14 8 3 15 0 15 -7 1 -7 7 -1 15 13 8 14
14 19 15 12 0 -8 15 1 33 20 19 18 32 35 31 37 -2 2 5 11 14 20 10 9 12 12 5
7 -10 -6 -12 -4 -7 8 3 9 10 16 16 16 5 0 6 10 3 21 -4 13 -3 19 2 16 5 -4 10
0 10 8 0 8 -4 12 -9 9 -15 -10 -8 9 10 23 9 8 12 12 5 9 -6 -4 -14 -2 -18 4
-3 5 -2 10 3 10 6 0 7 13 2 33 -11 46 -21 67 -31 67 -5 0 -9 5 -9 11 0 6 -7
17 -15 26 -8 8 -12 20 -8 26 4 6 0 8 -10 4 -10 -3 -17 -2 -17 3 0 6 -7 10 -15
10 -8 0 -15 7 -15 15 0 8 -6 12 -14 9 -8 -3 -17 0 -21 6 -4 7 -353 10 -1206
10 -937 -1 -1198 -3 -1192 -13 4 -7 0 -7 -10 2 -12 9 -17 10 -17 2 0 -7 -5 -9
-12 -4 -21 12 -48 14 -48 2 0 -5 6 -7 13 -3 6 4 9 3 4 -1 -4 -5 -18 -9 -31
-10 -19 0 -22 2 -14 12 8 10 7 12 -6 7 -9 -3 -16 -11 -17 -18 0 -6 -4 -2 -9 9
-8 18 -9 18 -9 2z m-2025 -2622 c-1 -8 -5 -17 -8 -21 -5 -4 -4 16 1 34 3 9 9
-1 7 -13z"/>
<path d="M4396 9142 c-3 -5 1 -9 9 -9 8 0 12 4 9 9 -3 4 -7 8 -9 8 -2 0 -6 -4
-9 -8z"/>
<path d="M2550 6460 c0 -5 5 -10 11 -10 5 0 7 5 4 10 -3 6 -8 10 -11 10 -2 0
-4 -4 -4 -10z"/>
<path d="M1305 5501 c-3 -5 -17 -8 -30 -5 -16 3 -25 0 -25 -8 0 -9 -3 -8 -10
2 -7 11 -10 11 -10 2 0 -7 -4 -11 -9 -8 -5 3 -21 -7 -37 -21 -16 -15 -32 -27
-36 -25 -4 1 -10 -7 -13 -18 -4 -11 -11 -20 -16 -20 -6 0 -7 -4 -4 -10 3 -5 1
-10 -5 -10 -6 0 -9 -4 -6 -9 3 -5 0 -14 -7 -20 -10 -7 -14 -38 -14 -96 0 -74
2 -83 15 -73 13 11 14 10 8 -8 -4 -14 -1 -26 9 -34 8 -7 15 -18 15 -24 0 -19
49 -58 63 -50 7 4 9 4 5 -1 -10 -11 20 -38 33 -29 8 4 9 3 5 -4 -4 -7 -1 -12
9 -12 10 0 14 5 10 13 -4 6 0 4 8 -5 8 -10 17 -15 21 -11 11 12 37 12 29 0 -4
-6 0 -8 9 -4 9 3 21 0 27 -6 9 -9 11 -8 5 7 -5 14 -3 17 7 14 8 -3 13 -12 11
-19 -2 -9 3 -7 16 4 15 14 21 15 24 5 4 -11 8 -10 21 1 15 12 17 11 18 -5 0
-18 1 -18 9 1 5 11 9 14 9 6 1 -11 4 -11 18 0 13 11 17 11 20 1 3 -6 10 -9 16
-5 19 12 38 12 30 0 -4 -6 0 -8 9 -4 9 3 21 0 27 -6 9 -9 11 -8 5 7 -5 14 -3
17 7 14 8 -3 13 -12 11 -19 -2 -9 3 -7 16 4 15 14 21 15 24 5 4 -11 8 -10 21
1 15 12 17 11 18 -5 0 -18 1 -18 9 1 5 11 9 14 9 6 1 -11 4 -11 18 0 13 11 17
11 20 1 3 -6 10 -9 16 -5 19 12 38 12 30 0 -4 -6 0 -8 9 -4 9 3 21 0 27 -6 9
-9 11 -8 5 7 -5 14 -3 17 7 14 8 -3 13 -12 11 -19 -2 -9 3 -7 16 4 15 14 21
15 24 5 4 -11 8 -10 21 1 15 12 17 11 18 -5 0 -18 1 -18 9 1 5 11 9 14 9 6 1
-11 4 -11 18 0 13 11 17 11 20 1 3 -6 10 -9 16 -5 19 12 38 12 30 0 -4 -6 0
-8 9 -4 9 3 21 0 27 -6 9 -9 11 -8 5 7 -5 14 -3 17 7 14 8 -3 13 -12 11 -19
-2 -9 3 -7 16 4 15 14 21 15 24 5 4 -11 8 -10 21 1 15 12 17 11 18 -5 0 -18 1
-18 9 1 5 11 9 14 9 6 1 -11 4 -11 18 0 13 11 17 11 20 1 3 -6 10 -9 16 -5 19
12 38 12 30 0 -4 -6 0 -8 9 -4 9 3 21 0 27 -6 9 -9 11 -8 5 7 -5 14 -3 17 7
14 8 -3 13 -12 11 -19 -2 -9 3 -7 16 4 15 14 21 15 24 5 4 -11 8 -10 21 1 15
12 17 11 18 -5 0 -18 1 -18 9 1 5 11 9 14 9 6 1 -11 4 -11 18 0 13 11 17 11
20 1 3 -6 10 -9 16 -5 19 12 38 12 30 0 -4 -6 0 -8 9 -4 9 3 21 0 27 -6 9 -9
10 -7 5 8 -7 18 -6 19 11 5 11 -9 16 -10 11 -2 -4 6 -2 12 3 12 6 0 11 -5 11
-11 0 -6 6 -9 14 -6 7 3 19 0 26 -6 10 -10 10 -7 0 11 -11 22 -10 23 10 12 12
-6 18 -16 14 -23 -4 -7 2 -3 14 7 12 11 22 14 22 8 0 -6 7 -9 15 -6 8 4 12 11
8 17 -3 6 -1 7 5 3 7 -4 12 -15 13 -24 0 -14 2 -13 9 3 5 11 9 14 9 6 1 -11 4
-11 18 0 13 11 17 11 20 1 3 -6 10 -9 16 -5 19 12 38 12 30 0 -4 -6 0 -8 9 -4
9 3 21 0 27 -6 9 -9 11 -8 5 7 -5 14 -3 17 7 14 8 -3 13 -12 11 -19 -2 -9 3
-7 16 4 15 14 21 15 24 5 4 -11 8 -10 21 1 15 12 17 11 18 -5 0 -18 1 -18 9 1
5 11 9 14 9 6 1 -11 4 -11 18 0 13 11 17 11 20 1 3 -6 10 -9 16 -5 19 12 38
12 30 0 -4 -6 0 -8 9 -4 9 3 21 0 27 -6 9 -9 11 -8 5 7 -5 14 -3 17 7 14 8 -3
13 -12 11 -19 -2 -9 3 -7 16 4 15 14 21 15 24 5 4 -11 8 -10 21 1 15 12 17 11
18 -5 0 -18 1 -18 9 1 5 11 9 14 9 6 1 -11 4 -11 18 0 13 11 17 11 20 1 3 -6
10 -9 16 -5 19 12 38 12 30 0 -4 -6 0 -8 9 -4 9 3 21 0 27 -6 9 -9 11 -8 5 7
-5 14 -3 17 7 14 8 -3 13 -12 11 -19 -2 -9 3 -7 16 4 15 14 21 15 24 5 4 -11
8 -10 21 1 15 12 17 11 18 -5 0 -18 1 -18 9 1 5 11 9 14 9 6 1 -11 4 -11 18 0
13 11 17 11 20 1 3 -6 10 -9 16 -5 19 12 38 12 30 0 -4 -6 0 -8 9 -4 9 3 21 0
27 -6 9 -9 11 -8 5 7 -5 14 -3 17 7 14 8 -3 13 -12 11 -19 -2 -9 3 -7 16 4 15
14 21 15 24 5 4 -11 8 -10 21 1 15 12 17 11 18 -5 0 -18 1 -18 9 1 5 11 9 14
9 6 1 -11 4 -11 18 0 13 11 17 11 20 1 3 -6 10 -9 16 -5 19 12 38 12 30 0 -4
-6 0 -8 9 -4 9 3 21 0 27 -6 9 -9 10 -7 5 8 -7 18 -6 19 11 5 11 -9 16 -10 11
-2 -4 6 -2 12 3 12 6 0 11 -5 11 -11 0 -6 6 -9 14 -6 7 3 19 0 26 -6 10 -10
10 -7 0 11 -11 22 -10 23 10 12 12 -6 18 -16 14 -23 -4 -7 2 -3 14 7 12 11 22
14 22 8 0 -6 7 -9 15 -6 8 4 12 11 8 17 -3 6 -1 7 5 3 7 -4 12 -15 13 -24 0
-14 2 -13 9 3 5 11 9 14 9 6 1 -11 4 -11 18 0 13 11 17 11 20 1 3 -6 10 -9 16
-5 19 12 38 12 30 0 -4 -6 0 -8 9 -4 9 3 21 0 27 -6 9 -9 11 -8 5 7 -5 14 -3
17 7 14 8 -3 13 -12 11 -19 -2 -9 3 -7 16 4 15 14 21 15 24 5 4 -11 8 -10 21
1 15 12 17 11 18 -5 0 -18 1 -18 9 1 5 11 9 14 9 6 1 -11 4 -11 18 0 13 11 17
11 20 1 3 -6 10 -9 16 -5 19 12 38 12 30 0 -4 -6 0 -8 9 -4 9 3 21 0 27 -6 9
-9 11 -8 5 7 -5 14 -3 17 7 14 8 -3 13 -12 11 -19 -2 -9 3 -7 16 4 15 14 21
15 24 5 4 -11 8 -10 21 1 15 12 17 11 18 -5 0 -18 1 -18 9 1 5 11 9 14 9 6 1
-11 4 -11 18 0 13 11 17 11 20 1 3 -6 10 -9 16 -5 19 12 38 12 30 0 -4 -6 0
-8 9 -4 9 3 21 0 27 -6 9 -9 11 -8 5 7 -5 14 -3 17 7 14 8 -3 13 -12 11 -19
-2 -9 3 -7 16 4 15 14 21 15 24 5 4 -11 8 -10 21 1 15 12 17 11 18 -5 0 -18 1
-18 9 1 5 11 9 14 9 6 1 -11 4 -11 18 0 13 11 17 11 20 1 3 -6 10 -9 16 -5 19
12 38 12 30 0 -4 -6 0 -8 9 -4 9 3 21 0 27 -6 9 -9 11 -8 5 7 -5 14 -3 17 7
14 8 -3 13 -12 11 -19 -2 -9 3 -7 16 4 15 14 21 15 24 5 4 -11 8 -10 21 1 15
12 17 11 18 -5 0 -18 1 -18 9 1 5 11 9 14 9 6 1 -11 4 -11 18 0 13 11 17 11
20 1 3 -6 10 -9 16 -5 19 12 38 12 30 0 -4 -6 0 -8 10 -4 9 3 19 2 22 -3 4 -6
12 -10 18 -10 7 0 6 4 -3 10 -13 8 -13 11 -1 22 10 10 12 10 7 1 -4 -8 -1 -13
8 -13 9 0 16 -5 16 -12 0 -6 7 -3 15 8 9 12 14 14 15 6 0 -7 5 -10 11 -7 18
12 69 17 69 7 0 -5 11 -7 25 -4 16 3 25 0 25 -9 0 -8 6 -5 15 7 9 12 14 14 15
6 0 -7 5 -10 11 -7 18 12 69 17 69 7 0 -5 11 -7 25 -4 16 3 25 0 25 -9 0 -8 6
-5 15 7 9 12 14 14 15 6 0 -7 5 -10 11 -7 18 12 69 17 69 7 0 -5 11 -7 25 -4
16 3 25 0 25 -9 0 -8 6 -5 15 7 9 12 14 14 15 6 0 -7 5 -10 11 -7 17 11 69 17
69 8 0 -5 9 -9 19 -9 11 0 17 4 15 8 -3 4 0 8 5 8 6 0 11 -5 11 -11 0 -6 6 -9
14 -6 7 3 19 0 26 -6 10 -10 10 -7 0 11 -11 22 -10 23 10 12 12 -6 18 -16 14
-23 -4 -7 2 -3 14 7 12 11 22 14 22 8 0 -6 7 -9 15 -6 8 4 12 11 8 17 -3 6 -1
7 5 3 7 -4 12 -15 13 -24 0 -14 2 -13 9 3 5 11 9 14 9 6 1 -11 4 -11 18 0 13
11 17 11 20 1 3 -6 10 -9 16 -5 19 12 38 12 30 0 -4 -6 0 -8 9 -4 9 3 21 0 27
-6 9 -9 11 -8 5 7 -5 14 -3 17 7 14 8 -3 13 -12 11 -19 -2 -9 3 -7 16 4 15 14
21 15 24 5 4 -11 8 -10 21 1 15 12 17 11 18 -5 0 -18 1 -18 9 1 5 11 9 14 9 6
1 -11 4 -11 18 0 13 11 17 11 20 1 3 -6 10 -9 16 -5 19 12 38 12 30 0 -4 -6 0
-8 9 -4 9 3 21 0 27 -6 9 -9 11 -8 5 7 -5 14 -3 17 7 14 8 -3 13 -12 11 -19
-2 -9 3 -7 16 4 15 14 21 15 24 5 4 -11 8 -10 21 1 15 12 17 11 18 -5 0 -18 1
-18 9 1 5 11 9 14 9 6 1 -11 4 -11 18 0 13 11 17 11 20 1 3 -6 10 -9 16 -5 19
12 38 12 30 0 -4 -6 0 -8 9 -4 9 3 21 0 27 -6 9 -9 11 -8 5 7 -5 14 -3 17 7
14 8 -3 13 -12 11 -19 -2 -9 3 -7 16 4 15 14 21 15 24 5 4 -11 8 -10 21 1 15
12 17 11 18 -5 0 -18 1 -18 9 1 5 11 9 14 9 6 1 -11 4 -11 18 0 13 11 17 11
20 1 3 -6 10 -9 16 -5 19 12 38 12 30 0 -4 -6 0 -8 9 -4 9 3 21 0 27 -6 9 -9
11 -8 5 7 -5 14 -3 17 7 14 8 -3 13 -12 11 -19 -2 -9 3 -7 16 4 15 14 21 15
24 5 4 -11 8 -10 21 1 15 12 17 11 18 -5 0 -18 1 -18 9 1 5 11 9 14 9 6 1 -11
4 -11 18 0 13 11 17 11 20 1 3 -6 10 -9 16 -5 19 12 38 12 30 0 -4 -6 0 -8 10
-4 9 3 19 2 22 -3 4 -6 12 -10 18 -10 7 0 6 4 -3 10 -13 8 -13 11 -1 22 10 10
12 10 7 1 -4 -8 -1 -13 8 -13 9 0 16 -5 16 -12 0 -6 7 -3 15 8 9 12 14 14 15
6 0 -7 5 -10 11 -7 18 12 69 17 69 7 0 -5 11 -7 25 -4 16 3 25 0 25 -9 0 -8 6
-5 15 7 9 12 14 14 15 6 0 -7 5 -10 11 -7 18 12 69 17 69 7 0 -5 11 -7 25 -4
16 3 25 0 25 -9 0 -8 6 -5 15 7 9 12 14 14 15 6 0 -7 5 -10 11 -7 18 12 69 17
69 7 0 -5 11 -7 25 -4 16 3 25 0 25 -9 0 -8 6 -5 15 7 9 12 14 14 15 6 0 -7 5
-10 11 -7 21 14 69 16 69 4 0 -8 4 -8 15 1 14 12 20 7 15 -15 -1 -5 7 -1 18 8
15 14 21 15 25 5 4 -11 7 -10 18 1 12 12 12 13 0 6 -10 -5 -12 -4 -7 4 10 15
26 5 27 -17 0 -14 2 -13 9 3 5 11 9 14 9 6 1 -11 4 -11 18 0 13 11 17 11 20 1
3 -6 10 -9 16 -5 19 12 38 12 30 0 -4 -6 0 -8 9 -4 9 3 21 0 27 -6 9 -9 11 -8
5 7 -5 14 -3 17 7 14 8 -3 13 -12 11 -19 -2 -9 3 -7 16 4 15 14 21 15 24 5 4
-11 8 -10 21 1 15 12 17 11 18 -5 0 -18 1 -18 9 1 5 11 9 14 9 6 1 -11 4 -11
18 0 13 11 17 11 20 1 3 -6 10 -9 16 -5 19 12 38 12 30 0 -4 -6 0 -8 9 -4 9 3
21 0 27 -6 9 -9 11 -8 5 7 -5 14 -3 17 7 14 8 -3 13 -12 11 -19 -2 -9 3 -7 16
4 15 14 21 15 24 5 4 -11 8 -10 21 1 15 12 17 11 18 -5 0 -18 1 -18 9 1 5 11
9 14 9 6 1 -11 4 -11 18 0 13 11 17 11 21 1 3 -10 7 -10 20 0 9 7 13 8 9 2 -8
-13 40 -14 61 -1 8 5 12 2 13 -10 0 -16 1 -16 9 2 5 11 9 14 9 6 1 -11 4 -11
18 0 13 11 17 11 20 1 3 -6 10 -9 16 -5 19 12 38 12 30 0 -4 -6 0 -8 9 -4 9 3
21 0 27 -6 9 -9 11 -8 5 7 -5 14 -3 17 7 14 8 -3 13 -12 11 -19 -2 -9 3 -7 16
4 15 14 21 15 24 5 4 -11 8 -10 21 1 15 12 17 11 18 -5 0 -18 1 -18 9 1 5 11
9 14 9 6 1 -11 4 -11 18 0 13 11 17 11 20 1 3 -6 10 -9 16 -5 19 12 38 12 30
0 -4 -6 0 -8 9 -4 9 3 21 0 27 -6 9 -9 11 -8 5 7 -5 14 -3 17 7 14 8 -3 13
-12 11 -19 -2 -9 3 -7 16 4 15 14 21 15 24 5 4 -11 8 -10 21 1 15 12 17 11 18
-5 0 -18 1 -18 9 1 5 11 9 14 9 6 1 -11 4 -11 16 -1 13 11 18 10 31 -6 9 -10
13 -13 9 -6 -4 7 0 12 9 12 9 0 16 -5 16 -12 0 -6 7 -3 15 8 9 12 14 14 15 6
0 -7 5 -10 11 -7 18 12 69 17 69 7 0 -5 11 -7 25 -4 16 3 25 0 25 -9 0 -8 6
-5 15 7 9 12 14 14 15 6 0 -7 5 -10 11 -7 21 14 69 16 69 4 0 -9 3 -9 14 0 11
9 15 9 19 -1 4 -10 6 -9 6 1 1 11 5 10 16 -5 8 -10 14 -14 13 -8 -2 7 2 12 7
12 6 0 9 -4 7 -10 -1 -5 2 -7 8 -3 6 3 8 11 5 16 -4 5 -1 9 4 9 6 0 11 -6 11
-12 0 -9 4 -8 10 2 8 12 10 12 10 -5 1 -19 1 -19 11 -2 6 9 15 15 20 12 5 -4
6 -11 3 -17 -4 -7 -2 -8 5 -4 6 4 9 12 6 17 -4 5 -1 9 4 9 6 0 11 -4 11 -10 0
-5 5 -10 11 -10 5 0 7 5 3 11 -4 7 1 7 15 -1 17 -9 26 -9 37 1 8 6 14 8 14 4
0 -4 8 -1 17 6 14 12 15 12 9 1 -7 -11 -4 -12 13 -2 12 6 19 15 16 20 -3 5 4
7 16 5 12 -2 19 -2 16 2 -4 3 6 17 21 31 15 14 26 30 24 34 -1 4 2 8 7 8 5 0
12 7 15 16 4 10 2 13 -7 9 -6 -4 -5 -1 3 7 9 7 14 21 12 32 -3 13 0 16 10 11
10 -6 11 -5 1 5 -10 11 -9 17 4 32 15 17 15 18 1 13 -17 -7 -19 9 -5 33 5 7 3
12 -4 12 -8 0 -7 5 2 17 10 11 10 14 2 9 -9 -5 -13 0 -13 13 0 31 -2 35 -19
49 -13 11 -13 12 -1 7 10 -4 9 -2 -2 8 -10 8 -18 17 -18 21 0 14 -29 36 -47
36 -15 0 -16 2 -3 11 12 9 11 10 -7 6 -14 -3 -23 0 -23 6 0 7 -14 12 -32 11
-18 0 -39 5 -47 10 -11 8 -13 8 -7 -1 4 -8 1 -13 -9 -13 -9 0 -14 4 -11 8 2 4
-4 8 -15 8 -10 0 -19 -3 -19 -7 0 -9 -21 -6 -39 5 -10 7 -12 5 -6 -3 9 -15
-42 -13 -62 2 -8 6 -13 6 -13 -1 0 -12 -18 -11 -39 2 -10 7 -12 5 -6 -3 9 -15
-42 -13 -62 2 -8 6 -13 6 -13 0 0 -5 -9 -9 -20 -10 -13 -1 -18 2 -14 9 5 7 2
8 -7 3 -20 -13 -59 -15 -59 -3 0 7 -5 6 -14 -1 -10 -9 -16 -9 -21 -1 -5 8 -11
7 -22 -1 -11 -10 -16 -10 -23 0 -5 10 -9 10 -15 2 -5 -9 -11 -9 -23 1 -12 10
-14 10 -8 0 8 -13 -19 -13 -41 1 -7 5 -13 4 -13 -2 0 -10 -32 -7 -52 5 -8 5
-9 1 -4 -12 5 -15 4 -16 -5 -7 -6 6 -18 9 -27 6 -11 -5 -13 -3 -7 8 7 11 5 11
-10 -1 -19 -16 -21 -15 -43 2 -6 6 -12 6 -12 1 0 -5 -9 -9 -20 -10 -13 -1 -18
2 -13 10 4 7 0 6 -10 -2 -14 -11 -17 -11 -17 0 0 9 -3 10 -8 4 -9 -13 -72 -16
-72 -3 0 6 -6 6 -14 -1 -10 -9 -16 -9 -21 -1 -5 8 -11 7 -22 -1 -11 -10 -16
-10 -23 0 -5 10 -9 10 -15 2 -5 -9 -11 -9 -22 0 -9 8 -17 9 -21 3 -8 -12 -22
-12 -41 0 -10 7 -12 6 -6 -3 9 -15 -42 -13 -62 2 -8 6 -13 6 -13 -1 0 -12 -18
-11 -39 2 -10 7 -12 5 -6 -3 9 -15 -42 -13 -62 2 -8 6 -13 6 -13 0 0 -5 -9 -9
-20 -10 -13 -1 -18 2 -14 9 5 7 2 8 -7 3 -20 -13 -59 -15 -59 -3 0 7 -5 6 -14
-1 -10 -9 -16 -9 -21 -1 -5 8 -11 7 -22 -1 -11 -10 -16 -10 -23 0 -5 10 -9 10
-15 2 -5 -9 -11 -9 -23 1 -12 10 -14 10 -8 0 8 -13 -19 -13 -41 1 -7 5 -13 4
-13 -2 0 -10 -32 -7 -52 5 -8 5 -9 1 -4 -12 5 -15 4 -16 -5 -7 -6 6 -18 9 -27
6 -11 -5 -13 -3 -7 8 7 11 6 12 -6 3 -16 -12 -29 -12 -46 -1 -7 5 -13 4 -13 0
0 -5 -9 -9 -20 -10 -13 -1 -18 2 -13 10 4 7 0 6 -10 -2 -14 -11 -17 -11 -17 0
0 9 -3 10 -8 4 -9 -13 -72 -16 -72 -3 0 6 -6 6 -14 -1 -10 -9 -16 -9 -21 -1
-5 8 -11 7 -22 -1 -11 -10 -16 -10 -23 0 -5 10 -9 10 -15 2 -5 -9 -11 -9 -22
0 -9 8 -17 9 -21 3 -8 -12 -22 -12 -41 0 -10 7 -12 6 -6 -3 9 -15 -42 -13 -62
2 -8 6 -13 6 -13 -1 0 -12 -18 -11 -39 2 -10 7 -12 5 -6 -3 9 -15 -42 -13 -62
2 -8 6 -13 6 -13 0 0 -5 -9 -9 -20 -10 -13 -1 -18 2 -14 9 5 7 2 8 -7 3 -20
-13 -59 -15 -59 -3 0 7 -5 6 -14 -1 -10 -9 -16 -9 -21 -1 -5 8 -11 7 -22 -1
-11 -10 -16 -10 -23 0 -5 10 -9 10 -15 2 -5 -9 -11 -9 -23 1 -12 10 -14 10 -8
0 8 -13 -19 -13 -41 1 -7 5 -13 4 -13 -2 0 -10 -32 -7 -52 5 -8 5 -9 1 -4 -12
5 -15 4 -16 -5 -7 -6 6 -18 9 -27 6 -11 -5 -13 -3 -7 8 7 11 6 12 -6 3 -16
-12 -29 -12 -46 -1 -7 5 -13 4 -13 0 0 -5 -9 -9 -20 -10 -13 -1 -18 2 -13 10
4 7 0 6 -10 -2 -14 -11 -17 -11 -17 0 0 9 -3 10 -8 4 -9 -13 -72 -16 -72 -3 0
6 -6 6 -14 -1 -10 -9 -16 -9 -21 -1 -5 8 -11 7 -22 -1 -11 -10 -16 -10 -23 0
-5 10 -9 10 -15 2 -5 -9 -11 -9 -22 0 -9 8 -17 9 -21 3 -8 -12 -22 -12 -41 0
-10 7 -12 6 -6 -3 9 -15 -42 -13 -62 2 -8 6 -13 6 -13 -1 0 -12 -18 -11 -39 2
-10 7 -12 5 -6 -3 9 -15 -42 -13 -62 2 -8 6 -13 6 -13 0 0 -5 -9 -9 -20 -10
-13 -1 -18 2 -14 9 5 7 2 8 -7 3 -20 -13 -59 -15 -59 -3 0 7 -5 6 -14 -1 -10
-9 -16 -9 -21 -1 -5 8 -11 7 -22 -1 -11 -10 -16 -10 -23 0 -5 10 -9 10 -15 2
-5 -9 -11 -9 -23 1 -12 10 -14 10 -8 0 8 -13 -19 -13 -41 1 -7 5 -13 4 -13 -2
0 -10 -32 -7 -52 5 -8 5 -9 1 -4 -12 5 -15 4 -16 -5 -7 -6 6 -18 9 -27 6 -11
-5 -13 -3 -7 8 7 11 6 12 -6 2 -17 -14 -30 -14 -46 -1 -7 6 -13 6 -13 1 0 -5
-9 -9 -20 -10 -13 -1 -18 2 -13 10 4 7 0 6 -10 -2 -14 -11 -17 -11 -17 0 0 9
-3 10 -8 4 -9 -13 -72 -16 -72 -3 0 6 -6 6 -14 -1 -10 -9 -16 -9 -21 -1 -5 8
-11 7 -22 -1 -11 -10 -16 -10 -23 0 -5 10 -9 10 -15 2 -5 -9 -11 -9 -22 0 -11
10 -16 10 -22 0 -11 -18 -15 -18 -36 -1 -13 10 -16 11 -11 2 6 -10 1 -13 -20
-11 -16 2 -35 7 -41 12 -8 6 -13 6 -13 -1 0 -12 -18 -11 -39 2 -10 7 -12 5 -6
-3 9 -15 -42 -13 -62 2 -8 6 -13 6 -13 0 0 -5 -9 -9 -20 -10 -13 -1 -18 2 -14
9 5 7 2 8 -7 3 -20 -13 -59 -15 -59 -3 0 7 -5 6 -14 -1 -10 -9 -16 -9 -21 -1
-5 8 -11 7 -22 -1 -11 -10 -16 -10 -23 0 -5 10 -9 10 -15 2 -5 -9 -11 -9 -22
0 -11 10 -16 10 -22 0 -11 -18 -15 -18 -36 -1 -13 10 -16 11 -11 2 6 -10 1
-13 -20 -11 -16 2 -35 7 -41 12 -8 6 -13 6 -13 -1 0 -12 -18 -11 -39 2 -10 7
-12 5 -6 -3 9 -15 -42 -13 -62 2 -8 6 -13 6 -13 0 0 -5 -9 -9 -20 -10 -13 -1
-18 2 -13 10 5 9 3 9 -8 0 -12 -10 -18 -10 -27 -1 -8 8 -12 9 -12 1 0 -13 -18
-12 -39 1 -10 7 -12 5 -6 -3 9 -15 -42 -13 -62 2 -8 6 -13 6 -13 -1 0 -12 -18
-11 -39 2 -10 7 -12 5 -6 -3 9 -15 -42 -13 -62 2 -8 6 -13 6 -13 0 0 -5 -9 -9
-20 -10 -13 -1 -18 2 -13 10 5 9 3 9 -8 0 -12 -10 -18 -10 -27 -1 -8 8 -12 9
-12 1 0 -13 -18 -12 -39 1 -10 7 -12 5 -6 -3 9 -15 -42 -13 -62 2 -8 6 -13 6
-13 -1 0 -12 -18 -11 -39 2 -10 7 -12 5 -6 -3 9 -15 -42 -13 -62 2 -8 6 -13 6
-13 0 0 -5 -9 -9 -20 -10 -13 -1 -18 2 -13 10 5 9 3 9 -8 0 -12 -10 -18 -10
-27 -1 -8 8 -12 9 -12 1 0 -13 -18 -12 -39 1 -10 7 -12 5 -6 -3 9 -15 -42 -13
-62 2 -8 6 -13 6 -13 -1 0 -12 -18 -11 -39 2 -10 7 -12 5 -6 -3 9 -15 -42 -13
-62 2 -8 6 -13 6 -13 0 0 -5 -9 -9 -20 -10 -13 -1 -18 2 -13 10 5 9 3 9 -8 0
-12 -10 -18 -10 -27 -1 -8 8 -12 9 -12 1 0 -13 -18 -12 -39 1 -10 7 -12 5 -6
-3 9 -15 -42 -13 -62 2 -8 6 -13 6 -13 -1 0 -12 -18 -11 -39 2 -10 7 -12 5 -6
-3 9 -15 -42 -13 -62 2 -8 6 -13 6 -13 0 0 -5 -9 -9 -20 -10 -13 -1 -18 2 -13
10 5 9 3 9 -8 0 -12 -10 -18 -10 -27 -1 -8 8 -12 9 -12 1 0 -13 -18 -12 -39 1
-10 7 -12 5 -6 -3 9 -15 -42 -13 -62 2 -8 6 -13 6 -13 -1 0 -12 -18 -11 -39 2
-10 7 -12 5 -6 -3 9 -15 -42 -13 -62 2 -8 6 -13 6 -13 0 0 -5 -9 -9 -20 -10
-13 -1 -18 2 -13 10 5 9 3 9 -8 0 -12 -10 -18 -10 -27 -1 -8 8 -12 9 -12 1 0
-13 -18 -12 -39 1 -10 7 -12 5 -6 -3 9 -15 -42 -13 -62 2 -8 6 -13 6 -13 -1 0
-12 -18 -11 -39 2 -10 7 -12 5 -6 -3 9 -15 -42 -13 -62 2 -8 6 -13 6 -13 0 0
-5 -9 -9 -20 -10 -13 -1 -18 2 -13 10 5 9 3 9 -8 0 -12 -10 -18 -10 -27 -1 -8
8 -12 9 -12 1 0 -13 -18 -12 -39 1 -10 7 -12 5 -6 -3 9 -15 -42 -13 -62 2 -8
6 -13 6 -13 -1 0 -12 -18 -11 -39 2 -10 7 -12 5 -6 -3 9 -15 -42 -13 -62 2 -8
6 -13 6 -13 0 0 -5 -9 -9 -20 -10 -13 -1 -18 2 -13 10 5 9 3 9 -8 0 -12 -10
-18 -10 -27 -1 -8 8 -12 9 -12 1 0 -13 -18 -12 -39 1 -10 7 -12 5 -6 -3 9 -15
-42 -13 -62 2 -8 6 -13 6 -13 -1 0 -12 -18 -11 -39 2 -10 7 -12 5 -6 -3 9 -15
-42 -13 -62 2 -8 6 -13 6 -13 0 0 -5 -9 -9 -20 -10 -13 -1 -18 2 -13 10 5 9 3
9 -8 0 -12 -10 -18 -10 -27 -1 -8 8 -12 9 -12 1 0 -13 -18 -12 -39 1 -10 7
-12 5 -6 -3 9 -15 -42 -13 -62 2 -8 6 -13 6 -13 -1 0 -12 -18 -11 -39 2 -10 7
-12 5 -6 -3 9 -15 -42 -13 -62 2 -8 6 -13 6 -13 0 0 -5 -9 -9 -20 -10 -13 -1
-18 2 -13 10 5 9 3 9 -8 0 -12 -10 -18 -10 -27 -1 -8 8 -12 9 -12 1 0 -13 -18
-12 -39 1 -10 7 -12 5 -6 -3 9 -15 -42 -13 -62 2 -8 6 -13 6 -13 -1 0 -12 -18
-11 -39 2 -10 7 -12 5 -6 -3 9 -15 -42 -13 -62 2 -8 6 -13 6 -13 0 0 -5 -9 -9
-20 -10 -13 -1 -18 2 -13 10 5 9 3 9 -8 0 -12 -10 -18 -10 -27 -1 -8 8 -12 9
-12 1 0 -13 -18 -12 -39 1 -10 7 -12 5 -6 -3 9 -15 -42 -13 -62 2 -8 6 -13 6
-13 -1 0 -12 -18 -11 -39 2 -10 7 -12 5 -6 -3 9 -15 -42 -13 -62 2 -8 6 -13 6
-13 0 0 -5 -9 -9 -20 -10 -11 -1 -18 2 -15 8 4 5 4 9 1 9 -3 0 -7 -4 -11 -9z"/>
<path d="M5225 5010 c-3 -6 1 -7 9 -4 18 7 21 14 7 14 -6 0 -13 -4 -16 -10z"/>
<path d="M5385 5010 c-3 -6 1 -7 9 -4 18 7 21 14 7 14 -6 0 -13 -4 -16 -10z"/>
<path d="M5545 5010 c-3 -6 1 -7 9 -4 18 7 21 14 7 14 -6 0 -13 -4 -16 -10z"/>
<path d="M5705 5010 c-3 -6 1 -7 9 -4 18 7 21 14 7 14 -6 0 -13 -4 -16 -10z"/>
<path d="M7145 5010 c-3 -6 1 -7 9 -4 18 7 21 14 7 14 -6 0 -13 -4 -16 -10z"/>
<path d="M7305 5010 c-3 -6 1 -7 9 -4 18 7 21 14 7 14 -6 0 -13 -4 -16 -10z"/>
<path d="M7465 5010 c-3 -6 1 -7 9 -4 18 7 21 14 7 14 -6 0 -13 -4 -16 -10z"/>
<path d="M7625 5010 c-3 -6 1 -7 9 -4 18 7 21 14 7 14 -6 0 -13 -4 -16 -10z"/>
<path d="M9065 5010 c-3 -6 1 -7 9 -4 18 7 21 14 7 14 -6 0 -13 -4 -16 -10z"/>
<path d="M9225 5010 c-3 -6 1 -7 9 -4 18 7 21 14 7 14 -6 0 -13 -4 -16 -10z"/>
<path d="M6901 4417 c-1 -15 -5 -16 -21 -7 -16 9 -20 8 -20 -7 0 -15 -2 -15
-16 3 -20 25 -6 -3 19 -38 11 -15 25 -24 30 -21 6 4 8 0 4 -10 -4 -11 1 -20
13 -27 11 -6 20 -19 20 -29 0 -11 7 -22 16 -25 8 -3 12 -10 9 -16 -3 -5 4 -11
17 -11 17 -1 18 -2 5 -6 -16 -4 -15 -6 5 -25 13 -11 17 -16 10 -13 -11 6 -12
3 -3 -14 7 -11 14 -21 17 -21 3 0 2 5 -2 12 -4 7 -3 8 5 4 6 -4 9 -11 6 -16
-3 -5 -1 -11 5 -15 6 -4 8 -11 5 -16 -4 -5 1 -9 9 -9 9 0 13 -7 11 -20 -2 -13
2 -20 11 -20 9 0 15 -8 14 -17 -3 -24 10 -63 20 -63 5 0 6 -10 3 -22 -4 -19
-3 -20 6 -8 9 12 11 11 11 -7 0 -13 0 -25 0 -28 -1 -3 6 -13 15 -21 8 -9 13
-20 10 -25 -4 -5 0 -9 7 -9 10 0 10 -2 -1 -9 -9 -6 -9 -10 -2 -12 6 -2 12 -16
13 -31 1 -16 6 -28 10 -28 4 0 8 -13 8 -30 0 -16 5 -30 11 -30 6 0 10 -12 9
-27 -1 -16 -1 -31 0 -35 1 -5 3 -11 4 -15 1 -5 5 -14 10 -22 7 -10 6 -12 -4
-6 -10 6 -11 4 -4 -6 4 -8 9 -18 10 -24 1 -5 6 -19 10 -30 7 -18 6 -19 -12 -5
-18 14 -18 14 -1 -6 9 -11 14 -24 10 -27 -3 -4 -1 -7 6 -7 7 0 9 -5 4 -12 -10
-17 -13 -38 -5 -38 4 0 7 -58 7 -129 1 -71 -2 -128 -6 -126 -3 2 -6 -2 -6 -10
0 -8 4 -15 9 -15 5 0 4 -9 -2 -20 -8 -14 -8 -20 0 -20 6 0 8 -5 5 -10 -4 -6
-12 -7 -18 -3 -7 4 -7 0 1 -10 12 -14 11 -21 -1 -46 -10 -21 -12 -32 -4 -40 8
-8 7 -11 -3 -11 -7 0 -10 -3 -7 -7 4 -3 1 -13 -6 -21 -8 -11 -8 -13 0 -9 7 5
9 0 6 -13 -3 -11 -9 -17 -14 -14 -12 7 -11 -3 2 -28 9 -16 8 -19 -2 -13 -9 6
-11 2 -7 -13 4 -12 2 -24 -3 -27 -4 -3 -6 -12 -3 -19 3 -7 -1 -20 -8 -27 -7
-8 -13 -26 -13 -41 1 -15 -2 -25 -5 -23 -3 2 -10 -8 -17 -21 -6 -13 -7 -22 -2
-18 5 3 6 -2 3 -10 -3 -9 -11 -13 -18 -9 -7 4 -7 1 1 -7 10 -11 9 -16 -5 -26
-14 -11 -14 -13 -2 -14 10 0 8 -5 -7 -15 -14 -10 -20 -23 -18 -36 2 -11 -2
-22 -11 -26 -8 -3 -13 -12 -10 -19 3 -8 0 -14 -6 -14 -6 0 -8 -3 -4 -7 3 -4
-4 -13 -16 -21 -13 -7 -15 -11 -6 -8 15 4 16 2 6 -14 -7 -10 -16 -17 -20 -14
-4 3 -5 -2 -2 -10 4 -9 0 -18 -9 -22 -9 -3 -14 -11 -11 -19 3 -7 -2 -15 -11
-19 -9 -3 -13 -10 -10 -16 3 -6 -1 -13 -9 -16 -9 -3 -13 -10 -10 -15 3 -5 1
-9 -4 -9 -5 0 -12 -9 -15 -21 -3 -12 -10 -18 -17 -14 -6 3 -10 3 -9 -2 4 -22
-2 -34 -13 -27 -10 6 -10 4 0 -8 11 -14 10 -17 -7 -23 -12 -3 -21 -13 -21 -21
0 -8 -7 -17 -16 -21 -8 -3 -13 -12 -10 -19 3 -8 2 -13 -2 -11 -12 3 -71 -61
-64 -69 4 -4 -1 -4 -11 -1 -10 4 -16 3 -13 -2 6 -10 -34 -65 -41 -57 -3 2 -18
-9 -34 -25 -15 -16 -32 -29 -38 -29 -5 0 -11 -7 -15 -15 -3 -8 -13 -15 -21
-15 -9 0 -14 -4 -11 -9 6 -9 -22 -26 -37 -22 -5 1 -6 -3 -3 -8 4 -5 -10 -19
-29 -31 -19 -12 -35 -26 -35 -31 0 -6 -5 -7 -11 -4 -6 4 -16 0 -22 -8 -7 -8
-28 -23 -47 -33 -19 -11 -40 -25 -46 -33 -6 -8 -16 -11 -23 -7 -7 5 -10 2 -9
-5 4 -16 -24 -19 -35 -4 -5 6 -7 3 -3 -7 3 -10 1 -20 -4 -23 -6 -4 -10 -1 -10
6 0 6 -9 1 -20 -12 -14 -17 -20 -20 -20 -9 0 11 -3 10 -11 -4 -9 -15 -13 -16
-20 -5 -7 11 -9 10 -9 -3 0 -10 -7 -18 -15 -18 -8 0 -15 -5 -15 -11 0 -8 -4
-8 -14 0 -11 9 -16 9 -22 0 -5 -8 -3 -9 6 -4 8 5 11 4 7 -2 -4 -6 -18 -10 -33
-10 -14 0 -30 -7 -35 -14 -7 -12 -9 -11 -9 1 0 12 -2 12 -9 2 -4 -7 -19 -14
-32 -16 -13 -2 -33 -7 -44 -10 -11 -4 -24 -6 -29 -6 -5 1 -12 -4 -17 -11 -6
-10 -11 -10 -26 1 -10 8 -15 11 -11 6 4 -4 2 -14 -5 -21 -9 -10 -14 -9 -25 4
-9 12 -12 12 -10 2 2 -10 -8 -14 -37 -15 -22 -1 -45 -7 -51 -15 -8 -10 -13
-11 -18 -2 -4 6 -12 9 -17 5 -5 -3 -7 -10 -4 -15 4 -5 1 -9 -4 -9 -6 0 -11 3
-11 8 0 4 -28 6 -62 4 -35 -2 -80 -3 -101 -3 -26 0 -36 -3 -31 -11 5 -7 3 -8
-7 -2 -19 12 -30 12 -53 1 -13 -6 -16 -6 -12 2 8 12 -6 15 -18 4 -10 -10 -46
-11 -40 -1 7 10 1 10 -31 -2 -16 -6 -24 -6 -20 0 6 10 -47 6 -66 -6 -8 -4 -9
-3 -5 5 8 12 -33 9 -55 -5 -8 -4 -9 -3 -5 4 8 13 -6 17 -18 5 -10 -10 -46 -11
-40 -1 7 10 1 10 -31 -2 -16 -6 -24 -6 -20 0 6 10 -47 6 -66 -6 -8 -4 -9 -3
-5 5 8 12 -33 9 -55 -5 -8 -4 -9 -3 -5 4 8 13 -6 17 -18 5 -10 -10 -46 -11
-40 -1 7 10 1 10 -31 -2 -16 -6 -24 -6 -20 0 6 10 -59 5 -78 -7 -6 -3 -7 -1
-3 5 7 12 -44 9 -65 -4 -8 -4 -9 -3 -5 5 8 12 -33 9 -55 -5 -8 -4 -9 -3 -5 4
8 13 -6 17 -18 5 -10 -10 -46 -11 -40 -1 7 10 1 10 -31 -2 -16 -6 -24 -6 -20
0 6 10 -59 5 -78 -7 -6 -3 -7 -1 -3 5 7 12 -44 9 -65 -4 -8 -4 -9 -3 -5 5 8
12 -33 9 -55 -5 -8 -4 -9 -3 -5 4 8 13 -6 17 -18 5 -10 -10 -46 -11 -40 -1 7
10 1 10 -31 -2 -16 -6 -24 -6 -20 0 6 10 -59 5 -78 -7 -6 -3 -7 -1 -3 5 7 12
-44 9 -65 -4 -8 -4 -9 -3 -5 5 8 12 -33 9 -55 -5 -8 -4 -9 -3 -5 4 8 13 -6 17
-18 5 -10 -10 -46 -11 -40 -1 7 10 1 10 -31 -2 -16 -6 -24 -6 -20 0 6 10 -47
6 -66 -6 -8 -4 -9 -3 -5 5 8 12 -33 9 -55 -5 -8 -4 -9 -3 -5 4 8 13 -6 17 -18
5 -10 -10 -46 -11 -40 -1 7 10 1 10 -31 -2 -16 -6 -24 -6 -20 0 6 10 -47 6
-66 -6 -8 -4 -9 -3 -5 5 8 12 -33 9 -55 -5 -8 -4 -9 -3 -5 4 8 13 -6 17 -18 5
-10 -10 -46 -11 -40 -1 7 10 1 10 -31 -2 -16 -6 -24 -6 -20 0 6 10 -47 6 -66
-6 -8 -4 -9 -3 -5 5 8 12 -33 9 -55 -5 -8 -4 -9 -3 -5 4 8 13 -6 17 -18 5 -10
-10 -46 -11 -40 -1 6 10 -39 3 -57 -8 -8 -4 -9 -3 -5 4 4 7 3 12 -3 12 -5 0
-13 -5 -17 -11 -5 -8 -9 -8 -14 1 -6 9 -12 9 -30 0 -15 -8 -20 -8 -16 -1 9 14
-7 14 -21 0 -8 -8 -13 -8 -17 0 -5 8 -13 8 -28 0 -15 -8 -19 -8 -14 0 4 6 3
11 -3 11 -5 0 -13 -5 -17 -11 -5 -8 -9 -8 -14 1 -6 9 -12 9 -30 0 -15 -8 -20
-8 -16 -1 8 12 -6 15 -18 4 -10 -10 -46 -11 -40 -1 6 10 -39 3 -57 -8 -8 -4
-9 -3 -5 4 8 13 -6 17 -18 5 -10 -10 -46 -11 -40 -1 7 10 1 10 -31 -2 -15 -6
-24 -6 -20 -1 6 11 -34 9 -52 -2 -6 -4 -14 -1 -16 5 -4 10 -6 9 -6 -1 -1 -11
-4 -11 -18 0 -9 8 -14 10 -11 4 8 -14 -14 -32 -36 -29 -10 1 -15 0 -12 -3 9
-10 -43 -45 -55 -37 -8 4 -9 3 -5 -5 4 -6 2 -18 -4 -26 -6 -8 -9 -19 -5 -25 4
-6 1 -9 -7 -8 -7 2 -12 -3 -11 -9 2 -7 -1 -13 -6 -13 -5 0 -8 -8 -6 -17 1 -10
0 -22 -4 -28 -9 -16 -10 -35 -1 -40 4 -2 6 -16 5 -30 -2 -14 1 -25 6 -25 6 0
7 -5 3 -12 -5 -8 -2 -9 11 -4 14 5 16 4 6 -8 -9 -11 -8 -15 4 -20 8 -3 15 -11
15 -18 0 -14 40 -44 53 -40 4 1 7 -3 7 -9 0 -6 9 -9 19 -6 14 3 18 1 14 -9 -4
-10 3 -14 23 -15 31 -1 56 -4 92 -13 12 -3 20 -1 17 3 -5 10 103 6 112 -3 4
-3 13 -1 20 6 11 9 16 9 23 -1 5 -10 9 -10 15 -1 5 8 13 6 28 -7 18 -15 19
-15 9 -1 -13 16 -8 17 63 13 42 -2 79 -6 82 -9 4 -3 13 -1 20 6 11 9 16 9 23
-1 5 -10 9 -10 15 -1 5 8 13 6 28 -7 14 -12 18 -13 10 -2 -11 14 -2 15 87 15
55 -1 100 -5 100 -9 0 -5 6 -5 12 0 18 10 128 12 128 1 0 -4 5 -8 11 -8 5 0 8
3 6 8 -3 4 33 7 79 8 46 0 84 -4 84 -9 0 -4 6 -5 12 0 18 10 128 12 128 1 0
-4 5 -8 11 -8 5 0 8 4 5 8 -2 4 4 8 14 8 10 0 16 -5 13 -11 -4 -5 -3 -7 2 -3
4 4 15 2 24 -5 14 -10 14 -10 3 5 -13 16 -8 17 63 13 42 -2 79 -6 82 -9 4 -3
13 -1 20 6 11 9 16 9 23 -1 5 -10 9 -10 15 -1 5 8 13 6 28 -7 18 -15 19 -15 9
-1 -13 16 -8 17 63 13 42 -2 79 -6 82 -9 4 -3 13 -1 20 6 11 9 16 9 23 -1 5
-10 9 -10 15 -1 5 8 13 6 28 -7 18 -15 19 -15 9 -1 -13 16 -8 17 63 13 42 -2
79 -6 82 -9 4 -3 13 -1 20 6 11 9 16 9 23 -1 5 -10 9 -10 15 -1 5 8 13 6 28
-7 18 -15 19 -15 9 -1 -13 16 -8 17 63 13 42 -2 79 -6 82 -9 4 -3 13 -1 20 6
11 9 16 9 23 -1 5 -10 9 -10 15 -1 5 8 13 6 28 -7 18 -15 19 -15 9 -1 -13 16
-8 17 63 13 42 -2 79 -6 82 -9 4 -3 13 -1 20 6 11 9 16 9 23 -1 5 -10 9 -10
15 -1 5 8 13 6 28 -7 14 -12 18 -13 10 -2 -11 14 -2 15 87 15 55 -1 100 -5
100 -9 0 -5 6 -5 12 0 18 10 128 12 128 1 0 -4 5 -8 11 -8 5 0 8 4 5 8 -3 5
15 7 40 6 30 -2 43 0 38 7 -4 8 0 8 12 2 23 -10 45 -10 62 0 6 5 12 5 12 0 0
-4 16 -8 35 -8 19 0 35 4 35 9 0 5 3 6 7 3 3 -4 13 -1 21 6 13 10 15 9 9 -7
-6 -16 -5 -17 8 -6 8 7 15 9 15 4 0 -5 5 -2 10 6 8 12 10 12 10 1 0 -11 3 -11
15 -1 12 10 15 10 15 -1 0 -12 2 -12 9 0 5 7 14 10 20 7 6 -4 11 -2 11 5 0 8
5 7 17 -2 10 -8 14 -9 10 -2 -5 7 -1 12 10 13 44 1 63 5 63 11 0 4 11 6 25 4
14 -1 28 2 31 7 3 5 12 7 19 4 8 -3 16 0 19 7 2 7 5 3 5 -8 1 -16 3 -17 10 -5
6 8 7 19 3 25 -3 5 1 4 10 -3 11 -9 18 -10 23 -2 3 5 15 10 26 10 10 0 19 6
19 13 0 8 4 7 10 -3 7 -11 10 -11 10 -2 0 7 4 11 9 7 5 -3 12 -1 15 4 4 5 17
8 31 6 22 -2 23 0 13 14 -7 9 -8 13 -4 9 5 -4 16 -2 24 5 13 9 14 9 8 0 -4 -7
-3 -13 3 -13 5 0 13 5 16 10 4 6 11 8 16 5 5 -4 9 -1 9 5 0 6 4 9 9 5 5 -3 12
-1 16 4 3 6 12 8 19 5 7 -3 20 2 29 10 9 9 22 16 31 16 8 0 20 8 25 18 6 9 11
13 11 8 0 -5 7 -3 15 4 8 7 15 9 15 6 0 -4 7 0 16 8 8 9 20 14 25 11 5 -4 9
-1 9 5 0 6 4 9 9 5 6 -3 14 2 19 11 6 11 16 15 26 11 10 -4 15 -3 11 3 -3 5 6
12 20 16 14 3 25 10 25 15 0 10 49 34 63 31 4 -1 7 5 7 13 0 13 18 20 43 16 4
0 7 5 7 13 0 17 27 29 43 19 7 -3 9 -3 5 1 -10 12 15 34 31 28 9 -3 12 -1 7 6
-4 7 -1 12 8 12 9 0 16 5 16 11 0 6 7 9 14 6 10 -4 13 -1 9 9 -3 8 1 14 10 14
8 0 18 7 21 16 3 8 10 12 16 9 5 -3 7 0 4 8 -3 8 0 18 7 23 8 5 10 3 5 -7 -4
-8 5 0 20 16 15 17 30 30 33 30 3 0 5 3 3 8 -1 4 3 7 9 7 6 0 35 25 64 55 30
30 52 55 49 55 -3 0 1 6 8 14 7 8 17 11 22 8 5 -3 6 0 2 6 -3 5 6 20 21 32 16
12 21 18 13 14 -8 -4 5 12 28 35 24 22 41 41 38 41 -3 0 8 14 24 30 31 32 40
49 17 34 -7 -5 -3 0 10 11 13 12 23 24 23 28 0 18 47 76 56 69 5 -4 6 -3 2 2
-9 11 10 48 22 41 4 -3 6 4 3 15 -3 12 0 20 8 20 7 0 9 3 6 7 -4 3 1 12 11 19
13 10 14 13 3 14 -10 0 -8 7 8 21 18 17 20 23 9 30 -10 7 -8 9 6 9 11 0 16 3
13 7 -4 3 1 12 11 20 9 8 11 12 5 8 -7 -3 -13 -1 -13 4 0 6 8 11 18 11 13 0
14 2 3 9 -11 7 -11 10 2 17 16 9 17 12 17 40 0 9 5 12 12 8 8 -5 9 -2 5 9 -3
9 1 23 9 32 9 8 11 15 5 15 -6 0 -11 4 -11 10 0 5 7 7 15 4 11 -5 13 -2 8 12
-4 11 -3 15 4 11 6 -4 8 3 5 18 -2 15 0 25 7 25 6 0 11 9 11 20 0 11 11 43 24
70 13 28 20 48 15 44 -5 -3 -9 0 -9 5 0 6 8 11 18 12 10 0 12 3 5 6 -7 2 -13
9 -13 14 0 6 4 8 9 5 4 -3 7 6 5 19 -1 14 2 25 7 25 6 0 5 9 -2 21 -9 17 -8
20 2 14 8 -6 11 -4 6 7 -3 9 0 21 6 27 8 8 8 11 -1 11 -9 0 -8 8 3 30 9 17 13
35 10 40 -3 5 -1 18 4 28 7 13 6 23 -2 32 -10 10 -8 12 6 7 15 -6 16 -4 7 13
-8 15 -8 20 2 21 7 0 4 4 -7 9 -19 8 -19 9 -1 9 15 1 17 4 9 12 -8 8 -9 19 -2
38 6 14 11 26 11 26 1 0 -5 11 -12 25 -11 22 -11 23 1 13 12 -10 15 -8 15 8 0
10 -4 19 -9 19 -5 0 -4 7 3 15 7 8 9 15 5 15 -4 0 -2 6 4 14 9 11 9 16 0 22
-8 5 -9 3 -4 -6 5 -9 4 -11 -4 -6 -6 4 -8 12 -4 19 10 17 11 117 0 117 -5 0
-4 7 4 16 8 9 9 18 3 22 -11 8 -12 47 -1 58 4 4 7 12 7 18 0 6 -4 5 -9 -3 -6
-9 -10 -4 -13 17 -3 20 -1 29 6 25 6 -4 5 0 -1 9 -7 8 -10 18 -6 21 3 4 2 7
-3 7 -6 0 -10 11 -10 25 0 14 4 25 8 25 5 0 4 8 -1 19 -6 10 -7 22 -3 26 4 5
1 4 -7 0 -11 -6 -13 -4 -8 8 4 10 2 17 -5 17 -7 0 -7 4 1 14 9 10 8 16 -4 26
-13 11 -13 15 -3 21 10 7 10 9 -2 9 -13 0 -13 1 0 10 11 7 11 10 2 10 -8 0
-10 5 -6 13 6 9 5 9 -7 0 -12 -10 -15 -8 -15 8 0 10 5 19 10 19 5 0 1 9 -8 19
-13 14 -14 20 -4 23 10 4 9 8 -3 21 -9 9 -20 13 -25 9 -5 -4 -2 1 5 11 11 14
11 17 0 17 -11 0 -11 2 1 10 12 8 12 10 -5 10 -17 0 -17 2 -5 10 13 8 12 10
-2 10 -10 0 -18 5 -18 11 0 6 6 7 13 2 6 -4 4 6 -7 21 -10 16 -13 25 -7 22 7
-5 9 -1 5 8 -3 9 -10 16 -15 16 -5 0 -9 9 -9 20 0 11 -5 20 -11 20 -5 0 -7 5
-4 10 3 6 2 10 -4 10 -6 0 -7 7 -4 17 4 11 3 14 -5 9 -7 -4 -12 -1 -12 9 0 9
4 14 8 11 5 -3 9 1 9 8 0 8 -6 12 -13 9 -7 -2 -18 5 -24 17 -7 13 -8 20 -3 17
5 -4 10 0 10 7 0 9 -7 12 -16 8 -9 -3 -13 -1 -9 3 5 5 -4 23 -18 42 -14 19
-23 41 -20 49 3 9 1 12 -4 9 -6 -3 -10 1 -10 9 0 9 -5 16 -11 16 -5 0 -7 5 -4
10 3 6 3 10 -2 11 -48 4 -83 3 -83 -3 0 -5 -5 -8 -11 -8 -5 0 -8 4 -5 8 2 4
-4 8 -15 8 -10 0 -19 -4 -19 -8 0 -5 -9 -4 -20 2 -14 8 -20 8 -20 0 0 -6 -5
-8 -12 -4 -17 11 -78 10 -78 -1 0 -5 -5 -3 -10 5 -5 8 -10 11 -10 5 0 -11 -72
-11 -89 0 -6 3 -11 1 -11 -4 0 -6 -5 -11 -11 -11 -5 0 -8 3 -6 8 3 4 -6 7 -19
7 -13 0 -24 -4 -25 -10 0 -5 -4 -1 -9 10 -8 18 -9 18 -9 2z"/>
</g>
</svg>
